<svg id="Layer_1" data-name="Layer 1" xmlns="http://www.w3.org/2000/svg" viewBox="0 0 1366 768"><defs><style>.cls-1{fill:#2c2c2b;}.cls-2{fill:#c7c7c7;fill-rule:evenodd;}</style></defs><rect class="cls-1" x="0.5" y="0.5" width="1365" height="767"/><path d="M1365,1V767H1V1H1365m1-1H0V768H1366V0Z"/><path class="cls-2" d="M1192,378.09h-5.54V394.6H1192v0a4.17,4.17,0,0,0,3-1.27l.14-.12a4.19,4.19,0,0,0,1.1-2.81h0v0h0V382.3h0v0h0a4.15,4.15,0,0,0-1.24-2.95,4.19,4.19,0,0,0-3-1.25h0v0Zm-70-56.15a3.7,3.7,0,0,1,5.2,1.17,4,4,0,0,1-1.14,5.37c-3.19,2.11-3.21,3.75-2.23,5.22a33.56,33.56,0,0,0,3.43,4,31.91,31.91,0,0,1,4.82,6c2.93,5.23,2.67,10.43-6.55,15.59a3.71,3.71,0,0,1-5.1-1.55,3.94,3.94,0,0,1,1.5-5.26c3.85-2.15,4.34-3.66,3.63-4.92a28.07,28.07,0,0,0-3.7-4.47,39.61,39.61,0,0,1-4.26-5.07c-3.43-5.21-4-10.55,4.4-16.14Zm42.41,0a3.7,3.7,0,0,1,5.2,1.17,4,4,0,0,1-1.14,5.37c-3.19,2.11-3.2,3.75-2.23,5.22a33.56,33.56,0,0,0,3.43,4,31.91,31.91,0,0,1,4.82,6c2.93,5.23,2.68,10.43-6.54,15.59a3.71,3.71,0,0,1-5.1-1.55,3.94,3.94,0,0,1,1.5-5.26c3.85-2.15,4.33-3.65,3.62-4.92a28.07,28.07,0,0,0-3.7-4.47,39.61,39.61,0,0,1-4.26-5.07c-3.43-5.22-4.06-10.55,4.4-16.14Zm-21.2,0a3.7,3.7,0,0,1,5.2,1.17,4,4,0,0,1-1.14,5.37c-3.19,2.11-3.21,3.75-2.23,5.22a33.56,33.56,0,0,0,3.43,4,31.91,31.91,0,0,1,4.82,6c2.93,5.23,2.68,10.43-6.54,15.59a3.71,3.71,0,0,1-5.1-1.55,3.94,3.94,0,0,1,1.5-5.26c3.85-2.15,4.33-3.66,3.62-4.92a28.07,28.07,0,0,0-3.7-4.47,38.81,38.81,0,0,1-4.26-5.07c-3.44-5.21-4-10.55,4.4-16.14Zm-51.45,111.73h36.12a37.39,37.39,0,0,1-20.72-33.37V370.25h74.58v.39a3.73,3.73,0,0,1,1-.13H1192v0h0a11.8,11.8,0,0,1,11.73,11.75h0v0h0v8.1h0v0h0v0a11.68,11.68,0,0,1-3.18,8,2.33,2.33,0,0,1-.26.28,11.71,11.71,0,0,1-8.32,3.45v0h-9.34a4,4,0,0,1-1.05-.15,37.38,37.38,0,0,1-20.67,31.65h38.15a1.58,1.58,0,0,1,1.42,1.7v7.15a1.57,1.57,0,0,1-1.42,1.69h-107.4a1.58,1.58,0,0,1-1.42-1.69v-7.15a1.56,1.56,0,0,1,1.4-1.71Z"/><path class="cls-2" d="M951,396.09h-5.54V412.6H951v0a4.17,4.17,0,0,0,3-1.27l.14-.12a4.19,4.19,0,0,0,1.1-2.81h0v0h0V400.3h0v0h0a4.15,4.15,0,0,0-1.24-2.95,4.19,4.19,0,0,0-2.95-1.25h0v0ZM880.9,339.94a3.7,3.7,0,0,1,5.2,1.17,4,4,0,0,1-1.14,5.37c-3.19,2.11-3.21,3.75-2.23,5.22a33.56,33.56,0,0,0,3.43,4,31.91,31.91,0,0,1,4.82,6c2.93,5.23,2.67,10.43-6.55,15.59a3.71,3.71,0,0,1-5.1-1.55,3.94,3.94,0,0,1,1.5-5.26c3.85-2.15,4.34-3.66,3.63-4.92a28.07,28.07,0,0,0-3.7-4.47,39.61,39.61,0,0,1-4.26-5.07c-3.43-5.21-4-10.55,4.4-16.14Zm42.41,0a3.7,3.7,0,0,1,5.2,1.17,4,4,0,0,1-1.14,5.37c-3.19,2.11-3.2,3.75-2.23,5.22a33.56,33.56,0,0,0,3.43,4,31.91,31.91,0,0,1,4.82,6c2.93,5.23,2.68,10.43-6.54,15.59a3.71,3.71,0,0,1-5.1-1.55,3.94,3.94,0,0,1,1.5-5.26c3.85-2.15,4.33-3.65,3.62-4.92a28.07,28.07,0,0,0-3.7-4.47,39.61,39.61,0,0,1-4.26-5.07c-3.43-5.22-4.06-10.55,4.4-16.14Zm-21.2,0a3.7,3.7,0,0,1,5.2,1.17,4,4,0,0,1-1.14,5.37c-3.19,2.11-3.21,3.75-2.23,5.22a33.56,33.56,0,0,0,3.43,4,31.91,31.91,0,0,1,4.82,6c2.93,5.23,2.68,10.43-6.54,15.59a3.71,3.71,0,0,1-5.1-1.55,3.94,3.94,0,0,1,1.5-5.26c3.85-2.15,4.33-3.66,3.62-4.92a28.07,28.07,0,0,0-3.7-4.47,38.81,38.81,0,0,1-4.26-5.07c-3.44-5.21-4.05-10.55,4.4-16.14ZM850.66,451.67h36.12a37.39,37.39,0,0,1-20.72-33.37V388.25h74.58v.39a3.73,3.73,0,0,1,1-.13H951v0h0a11.8,11.8,0,0,1,11.73,11.75h0v0h0v8.1h0v0h0v0a11.68,11.68,0,0,1-3.18,8,2.33,2.33,0,0,1-.26.28,11.71,11.71,0,0,1-8.32,3.45v0h-9.34a4,4,0,0,1-1-.15,37.38,37.38,0,0,1-20.67,31.65h38.15a1.58,1.58,0,0,1,1.42,1.7v7.15a1.57,1.57,0,0,1-1.42,1.69H850.68a1.58,1.58,0,0,1-1.42-1.69v-7.15a1.56,1.56,0,0,1,1.4-1.71Z"/><path class="cls-2" d="M826,533.09h-5.54V549.6H826v0a4.17,4.17,0,0,0,3-1.27l.14-.12a4.19,4.19,0,0,0,1.1-2.81h0v0h0V537.3h0v0h0a4.15,4.15,0,0,0-1.24-2.95,4.19,4.19,0,0,0-2.95-1.25h0v0ZM755.9,476.94a3.7,3.7,0,0,1,5.2,1.17,4,4,0,0,1-1.14,5.37c-3.19,2.11-3.21,3.75-2.23,5.22a33.56,33.56,0,0,0,3.43,4,31.91,31.91,0,0,1,4.82,6c2.93,5.23,2.67,10.43-6.55,15.59a3.71,3.71,0,0,1-5.1-1.55,3.94,3.94,0,0,1,1.5-5.26c3.85-2.15,4.34-3.66,3.63-4.92a28.07,28.07,0,0,0-3.7-4.47,39.61,39.61,0,0,1-4.26-5.07c-3.43-5.21-4-10.55,4.4-16.14Zm42.41,0a3.7,3.7,0,0,1,5.2,1.17,4,4,0,0,1-1.14,5.37c-3.19,2.11-3.2,3.75-2.23,5.22a33.56,33.56,0,0,0,3.43,4,31.91,31.91,0,0,1,4.82,6c2.93,5.23,2.68,10.43-6.54,15.59a3.71,3.71,0,0,1-5.1-1.55,3.94,3.94,0,0,1,1.5-5.26c3.85-2.15,4.33-3.65,3.62-4.92a28.07,28.07,0,0,0-3.7-4.47,39.61,39.61,0,0,1-4.26-5.07c-3.43-5.22-4.06-10.55,4.4-16.14Zm-21.2,0a3.7,3.7,0,0,1,5.2,1.17,4,4,0,0,1-1.14,5.37c-3.19,2.11-3.21,3.75-2.23,5.22a33.56,33.56,0,0,0,3.43,4,31.91,31.91,0,0,1,4.82,6c2.93,5.23,2.68,10.43-6.54,15.59a3.71,3.71,0,0,1-5.1-1.55,3.94,3.94,0,0,1,1.5-5.26c3.85-2.15,4.33-3.66,3.62-4.92a28.07,28.07,0,0,0-3.7-4.47,38.81,38.81,0,0,1-4.26-5.07c-3.44-5.21-4.05-10.55,4.4-16.14ZM725.66,588.67h36.12a37.39,37.39,0,0,1-20.72-33.37v-30h74.58v.39a3.73,3.73,0,0,1,1-.13H826v0h0a11.8,11.8,0,0,1,11.73,11.75h0v0h0v8.1h0v0h0v0a11.68,11.68,0,0,1-3.18,8,2.33,2.33,0,0,1-.26.28,11.71,11.71,0,0,1-8.32,3.45v0h-9.34a4,4,0,0,1-1-.15,37.38,37.38,0,0,1-20.67,31.65h38.15a1.58,1.58,0,0,1,1.42,1.7v7.15a1.57,1.57,0,0,1-1.42,1.69H725.68a1.58,1.58,0,0,1-1.42-1.69v-7.15a1.56,1.56,0,0,1,1.4-1.71Z"/><path class="cls-2" d="M525,395.09h-5.54V411.6H525v0a4.17,4.17,0,0,0,3-1.27l.14-.12a4.19,4.19,0,0,0,1.1-2.81h0v0h0V399.3h0v0h0a4.15,4.15,0,0,0-1.24-2.95,4.19,4.19,0,0,0-2.95-1.25h0v0ZM454.9,338.94a3.7,3.7,0,0,1,5.2,1.17,4,4,0,0,1-1.14,5.37c-3.19,2.11-3.21,3.75-2.23,5.22a33.56,33.56,0,0,0,3.43,4,31.91,31.91,0,0,1,4.82,6c2.93,5.23,2.67,10.43-6.55,15.59a3.71,3.71,0,0,1-5.1-1.55,3.94,3.94,0,0,1,1.5-5.26c3.85-2.15,4.34-3.66,3.63-4.92a28.07,28.07,0,0,0-3.7-4.47,39.61,39.61,0,0,1-4.26-5.07c-3.43-5.21-4.05-10.55,4.4-16.14Zm42.41,0a3.7,3.7,0,0,1,5.2,1.17,4,4,0,0,1-1.14,5.37c-3.19,2.11-3.2,3.75-2.23,5.22a33.56,33.56,0,0,0,3.43,4,31.91,31.91,0,0,1,4.82,6c2.93,5.23,2.68,10.43-6.54,15.59a3.71,3.71,0,0,1-5.1-1.55,3.94,3.94,0,0,1,1.5-5.26c3.85-2.15,4.33-3.65,3.62-4.92a28.07,28.07,0,0,0-3.7-4.47,39.61,39.61,0,0,1-4.26-5.07c-3.43-5.22-4.06-10.55,4.4-16.14Zm-21.2,0a3.7,3.7,0,0,1,5.2,1.17,4,4,0,0,1-1.14,5.37c-3.19,2.11-3.21,3.75-2.23,5.22a33.56,33.56,0,0,0,3.43,4,31.91,31.91,0,0,1,4.82,6c2.93,5.23,2.68,10.43-6.54,15.59a3.71,3.71,0,0,1-5.1-1.55,3.94,3.94,0,0,1,1.5-5.26c3.85-2.15,4.33-3.66,3.62-4.92a28.07,28.07,0,0,0-3.7-4.47,38.81,38.81,0,0,1-4.26-5.07c-3.44-5.21-4-10.55,4.4-16.14ZM424.66,450.67h36.12a37.39,37.39,0,0,1-20.72-33.37V387.25h74.58v.39a3.73,3.73,0,0,1,1-.13H525v0h0a11.8,11.8,0,0,1,11.73,11.75h0v0h0v8.1h0v0h0v0a11.68,11.68,0,0,1-3.18,8,2.33,2.33,0,0,1-.26.28,11.71,11.71,0,0,1-8.32,3.45v0h-9.34a4,4,0,0,1-1-.15,37.38,37.38,0,0,1-20.67,31.65h38.15a1.58,1.58,0,0,1,1.42,1.7v7.15a1.57,1.57,0,0,1-1.42,1.69H424.68a1.58,1.58,0,0,1-1.42-1.69v-7.15a1.56,1.56,0,0,1,1.4-1.71Z"/><path class="cls-2" d="M707,65.09h-5.54V81.6H707v0a4.17,4.17,0,0,0,3-1.27l.14-.12a4.19,4.19,0,0,0,1.1-2.81h0v0h0V69.3h0v0h0a4.15,4.15,0,0,0-1.24-3A4.19,4.19,0,0,0,707,65.07h0v0ZM636.9,8.94a3.7,3.7,0,0,1,5.2,1.17A4,4,0,0,1,641,15.48c-3.19,2.11-3.21,3.75-2.23,5.22a33.56,33.56,0,0,0,3.43,4,31.91,31.91,0,0,1,4.82,6c2.93,5.23,2.67,10.43-6.55,15.59a3.71,3.71,0,0,1-5.1-1.55,3.94,3.94,0,0,1,1.5-5.26c3.85-2.15,4.34-3.66,3.63-4.92a28.07,28.07,0,0,0-3.7-4.47,39.61,39.61,0,0,1-4.26-5.07c-3.43-5.21-4-10.55,4.4-16.14Zm42.41,0a3.7,3.7,0,0,1,5.2,1.17,4,4,0,0,1-1.14,5.37c-3.19,2.11-3.2,3.75-2.23,5.22a33.56,33.56,0,0,0,3.43,4,31.91,31.91,0,0,1,4.82,6c2.93,5.23,2.68,10.43-6.54,15.59a3.71,3.71,0,0,1-5.1-1.55,3.94,3.94,0,0,1,1.5-5.26c3.85-2.15,4.33-3.65,3.62-4.92a28.07,28.07,0,0,0-3.7-4.47,39.61,39.61,0,0,1-4.26-5.07c-3.43-5.22-4.06-10.55,4.4-16.14Zm-21.2,0a3.7,3.7,0,0,1,5.2,1.17,4,4,0,0,1-1.14,5.37c-3.19,2.11-3.21,3.75-2.23,5.22a33.56,33.56,0,0,0,3.43,4,31.91,31.91,0,0,1,4.82,6c2.93,5.23,2.68,10.43-6.54,15.59a3.71,3.71,0,0,1-5.1-1.55,3.94,3.94,0,0,1,1.5-5.26c3.85-2.15,4.33-3.66,3.62-4.92a28.07,28.07,0,0,0-3.7-4.47,38.81,38.81,0,0,1-4.26-5.07c-3.44-5.21-4.05-10.55,4.4-16.14ZM606.66,120.67h36.12A37.39,37.39,0,0,1,622.06,87.3v-30h74.58v.39a3.73,3.73,0,0,1,1-.13H707v0h0a11.8,11.8,0,0,1,11.73,11.75h0v0h0v8.1h0v0h0v0a11.68,11.68,0,0,1-3.18,8,2.33,2.33,0,0,1-.26.28A11.71,11.71,0,0,1,707,89.16v0h-9.34a4,4,0,0,1-1-.15,37.38,37.38,0,0,1-20.67,31.65h38.15a1.58,1.58,0,0,1,1.42,1.7v7.15a1.57,1.57,0,0,1-1.42,1.69H606.68a1.58,1.58,0,0,1-1.42-1.69v-7.15a1.56,1.56,0,0,1,1.4-1.71Z"/><path class="cls-2" d="M800,238.09h-5.54V254.6H800v0a4.17,4.17,0,0,0,3-1.27l.14-.12a4.19,4.19,0,0,0,1.1-2.81h0v0h0V242.3h0v0h0a4.15,4.15,0,0,0-1.24-3,4.19,4.19,0,0,0-2.95-1.25h0v0ZM729.9,181.94a3.7,3.7,0,0,1,5.2,1.17,4,4,0,0,1-1.14,5.37c-3.19,2.11-3.21,3.75-2.23,5.22a33.56,33.56,0,0,0,3.43,4,31.91,31.91,0,0,1,4.82,6c2.93,5.23,2.67,10.43-6.55,15.59a3.71,3.71,0,0,1-5.1-1.55,3.94,3.94,0,0,1,1.5-5.26c3.85-2.15,4.34-3.66,3.63-4.92a28.07,28.07,0,0,0-3.7-4.47,39.61,39.61,0,0,1-4.26-5.07c-3.43-5.21-4-10.55,4.4-16.14Zm42.41,0a3.7,3.7,0,0,1,5.2,1.17,4,4,0,0,1-1.14,5.37c-3.19,2.11-3.2,3.75-2.23,5.22a33.56,33.56,0,0,0,3.43,4,31.91,31.91,0,0,1,4.82,6c2.93,5.23,2.68,10.43-6.54,15.59a3.71,3.71,0,0,1-5.1-1.55,3.94,3.94,0,0,1,1.5-5.26c3.85-2.15,4.33-3.65,3.62-4.92a28.07,28.07,0,0,0-3.7-4.47,39.61,39.61,0,0,1-4.26-5.07c-3.43-5.22-4.06-10.55,4.4-16.14Zm-21.2,0a3.7,3.7,0,0,1,5.2,1.17,4,4,0,0,1-1.14,5.37c-3.19,2.11-3.21,3.75-2.23,5.22a33.56,33.56,0,0,0,3.43,4,31.91,31.91,0,0,1,4.82,6c2.93,5.23,2.68,10.43-6.54,15.59a3.71,3.71,0,0,1-5.1-1.55,3.94,3.94,0,0,1,1.5-5.26c3.85-2.15,4.33-3.66,3.62-4.92a28.07,28.07,0,0,0-3.7-4.47,38.81,38.81,0,0,1-4.26-5.07c-3.44-5.21-4.05-10.55,4.4-16.14ZM699.66,293.67h36.12a37.39,37.39,0,0,1-20.72-33.37V230.25h74.58v.39a3.73,3.73,0,0,1,1-.13H800v0h0a11.8,11.8,0,0,1,11.73,11.75h0v0h0v8.1h0v0h0v0a11.68,11.68,0,0,1-3.18,8,2.33,2.33,0,0,1-.26.28,11.71,11.71,0,0,1-8.32,3.45v0h-9.34a4,4,0,0,1-1-.15,37.38,37.38,0,0,1-20.67,31.65h38.15a1.58,1.58,0,0,1,1.42,1.7v7.15a1.57,1.57,0,0,1-1.42,1.69H699.68a1.58,1.58,0,0,1-1.42-1.69v-7.15a1.56,1.56,0,0,1,1.4-1.71Z"/><path class="cls-2" d="M1061,237.09h-5.54V253.6H1061v0a4.17,4.17,0,0,0,3-1.27l.14-.12a4.19,4.19,0,0,0,1.1-2.81h0v0h0V241.3h0v0h0a4.15,4.15,0,0,0-1.24-3,4.19,4.19,0,0,0-3-1.25h0v0ZM990.9,180.94a3.7,3.7,0,0,1,5.2,1.17,4,4,0,0,1-1.14,5.37c-3.19,2.11-3.21,3.75-2.23,5.22a33.56,33.56,0,0,0,3.43,4,31.91,31.91,0,0,1,4.82,6c2.93,5.23,2.67,10.43-6.55,15.59a3.71,3.71,0,0,1-5.1-1.55,3.94,3.94,0,0,1,1.5-5.26c3.85-2.15,4.34-3.66,3.63-4.92a28.07,28.07,0,0,0-3.7-4.47,39.61,39.61,0,0,1-4.26-5.07c-3.43-5.21-4-10.55,4.4-16.14Zm42.41,0a3.7,3.7,0,0,1,5.2,1.17,4,4,0,0,1-1.14,5.37c-3.19,2.11-3.2,3.75-2.23,5.22a33.56,33.56,0,0,0,3.43,4,31.91,31.91,0,0,1,4.82,6c2.93,5.23,2.68,10.43-6.54,15.59a3.71,3.71,0,0,1-5.1-1.55,3.94,3.94,0,0,1,1.5-5.26c3.85-2.15,4.33-3.65,3.62-4.92a28.07,28.07,0,0,0-3.7-4.47,39.61,39.61,0,0,1-4.26-5.07c-3.43-5.22-4.06-10.55,4.4-16.14Zm-21.2,0a3.7,3.7,0,0,1,5.2,1.17,4,4,0,0,1-1.14,5.37c-3.19,2.11-3.21,3.75-2.23,5.22a33.56,33.56,0,0,0,3.43,4,31.91,31.91,0,0,1,4.82,6c2.93,5.23,2.68,10.43-6.54,15.59a3.71,3.71,0,0,1-5.1-1.55,3.94,3.94,0,0,1,1.5-5.26c3.85-2.15,4.33-3.66,3.62-4.92a28.07,28.07,0,0,0-3.7-4.47,38.81,38.81,0,0,1-4.26-5.07c-3.44-5.21-4.05-10.55,4.4-16.14ZM960.66,292.67h36.12a37.39,37.39,0,0,1-20.72-33.37V229.25h74.58v.39a3.73,3.73,0,0,1,1-.13H1061v0h0a11.8,11.8,0,0,1,11.73,11.75h0v0h0v8.1h0v0h0v0a11.68,11.68,0,0,1-3.18,8,2.33,2.33,0,0,1-.26.28,11.71,11.71,0,0,1-8.32,3.45v0h-9.34a4,4,0,0,1-1.05-.15,37.38,37.38,0,0,1-20.67,31.65h38.15a1.58,1.58,0,0,1,1.42,1.7v7.15a1.57,1.57,0,0,1-1.42,1.69H960.68a1.58,1.58,0,0,1-1.42-1.69v-7.15a1.56,1.56,0,0,1,1.4-1.71Z"/><path class="cls-2" d="M939,81.09h-5.54V97.6H939v0a4.17,4.17,0,0,0,3-1.27l.14-.12a4.19,4.19,0,0,0,1.1-2.81h0v0h0V85.3h0v0h0a4.15,4.15,0,0,0-1.24-3A4.19,4.19,0,0,0,939,81.07h0v0ZM868.9,24.94a3.7,3.7,0,0,1,5.2,1.17A4,4,0,0,1,873,31.48c-3.19,2.11-3.21,3.75-2.23,5.22a33.56,33.56,0,0,0,3.43,4,31.91,31.91,0,0,1,4.82,6c2.93,5.23,2.67,10.43-6.55,15.59a3.71,3.71,0,0,1-5.1-1.55,3.94,3.94,0,0,1,1.5-5.26c3.85-2.15,4.34-3.66,3.63-4.92a28.07,28.07,0,0,0-3.7-4.47,39.61,39.61,0,0,1-4.26-5.07c-3.43-5.21-4-10.55,4.4-16.14Zm42.41,0a3.7,3.7,0,0,1,5.2,1.17,4,4,0,0,1-1.14,5.37c-3.19,2.11-3.2,3.75-2.23,5.22a33.56,33.56,0,0,0,3.43,4,31.91,31.91,0,0,1,4.82,6c2.93,5.23,2.68,10.43-6.54,15.59a3.71,3.71,0,0,1-5.1-1.55,3.94,3.94,0,0,1,1.5-5.26c3.85-2.15,4.33-3.65,3.62-4.92a28.07,28.07,0,0,0-3.7-4.47,39.61,39.61,0,0,1-4.26-5.07c-3.43-5.22-4.06-10.55,4.4-16.14Zm-21.2,0a3.7,3.7,0,0,1,5.2,1.17,4,4,0,0,1-1.14,5.37c-3.19,2.11-3.21,3.75-2.23,5.22a33.56,33.56,0,0,0,3.43,4,31.91,31.91,0,0,1,4.82,6c2.93,5.23,2.68,10.43-6.54,15.59a3.71,3.71,0,0,1-5.1-1.55,3.94,3.94,0,0,1,1.5-5.26c3.85-2.15,4.33-3.66,3.62-4.92a28.07,28.07,0,0,0-3.7-4.47,38.81,38.81,0,0,1-4.26-5.07c-3.44-5.21-4.05-10.55,4.4-16.14ZM838.66,136.67h36.12a37.39,37.39,0,0,1-20.72-33.37v-30h74.58v.39a3.73,3.73,0,0,1,1-.13H939v0h0a11.8,11.8,0,0,1,11.73,11.75h0v0h0v8.1h0v0h0v0a11.68,11.68,0,0,1-3.18,8,2.33,2.33,0,0,1-.26.28,11.71,11.71,0,0,1-8.32,3.45v0h-9.34a4,4,0,0,1-1-.15,37.38,37.38,0,0,1-20.67,31.65h38.15a1.58,1.58,0,0,1,1.42,1.7v7.15a1.57,1.57,0,0,1-1.42,1.69H838.68a1.58,1.58,0,0,1-1.42-1.69v-7.15a1.56,1.56,0,0,1,1.4-1.71Z"/><path class="cls-2" d="M502,65.09h-5.54V81.6H502v0a4.17,4.17,0,0,0,3-1.27l.14-.12a4.19,4.19,0,0,0,1.1-2.81h0v0h0V69.3h0v0h0a4.15,4.15,0,0,0-1.24-3A4.19,4.19,0,0,0,502,65.07h0v0ZM431.9,8.94a3.7,3.7,0,0,1,5.2,1.17A4,4,0,0,1,436,15.48c-3.19,2.11-3.21,3.75-2.23,5.22a33.56,33.56,0,0,0,3.43,4,31.91,31.91,0,0,1,4.82,6c2.93,5.23,2.67,10.43-6.55,15.59a3.71,3.71,0,0,1-5.1-1.55,3.94,3.94,0,0,1,1.5-5.26c3.85-2.15,4.34-3.66,3.63-4.92a28.07,28.07,0,0,0-3.7-4.47,39.61,39.61,0,0,1-4.26-5.07c-3.43-5.21-4.05-10.55,4.4-16.14Zm42.41,0a3.7,3.7,0,0,1,5.2,1.17,4,4,0,0,1-1.14,5.37c-3.19,2.11-3.2,3.75-2.23,5.22a33.56,33.56,0,0,0,3.43,4,31.91,31.91,0,0,1,4.82,6c2.93,5.23,2.68,10.43-6.54,15.59a3.71,3.71,0,0,1-5.1-1.55,3.94,3.94,0,0,1,1.5-5.26c3.85-2.15,4.33-3.65,3.62-4.92a28.07,28.07,0,0,0-3.7-4.47,39.61,39.61,0,0,1-4.26-5.07c-3.43-5.22-4.06-10.55,4.4-16.14Zm-21.2,0a3.7,3.7,0,0,1,5.2,1.17,4,4,0,0,1-1.14,5.37c-3.19,2.11-3.21,3.75-2.23,5.22a33.56,33.56,0,0,0,3.43,4,31.91,31.91,0,0,1,4.82,6c2.93,5.23,2.68,10.43-6.54,15.59a3.71,3.71,0,0,1-5.1-1.55,3.94,3.94,0,0,1,1.5-5.26c3.85-2.15,4.33-3.66,3.62-4.92a28.07,28.07,0,0,0-3.7-4.47,38.81,38.81,0,0,1-4.26-5.07c-3.44-5.21-4-10.55,4.4-16.14ZM401.66,120.67h36.12A37.39,37.39,0,0,1,417.06,87.3v-30h74.58v.39a3.73,3.73,0,0,1,1-.13H502v0h0a11.8,11.8,0,0,1,11.73,11.75h0v0h0v8.1h0v0h0v0a11.68,11.68,0,0,1-3.18,8,2.33,2.33,0,0,1-.26.28A11.71,11.71,0,0,1,502,89.16v0h-9.34a4,4,0,0,1-1-.15,37.38,37.38,0,0,1-20.67,31.65h38.15a1.58,1.58,0,0,1,1.42,1.7v7.15a1.57,1.57,0,0,1-1.42,1.69H401.68a1.58,1.58,0,0,1-1.42-1.69v-7.15a1.56,1.56,0,0,1,1.4-1.71Z"/><path class="cls-2" d="M601,234.09h-5.54V250.6H601v0a4.17,4.17,0,0,0,3-1.27l.14-.12a4.19,4.19,0,0,0,1.1-2.81h0v0h0V238.3h0v0h0a4.15,4.15,0,0,0-1.24-3,4.19,4.19,0,0,0-2.95-1.25h0v0ZM530.9,177.94a3.7,3.7,0,0,1,5.2,1.17,4,4,0,0,1-1.14,5.37c-3.19,2.11-3.21,3.75-2.23,5.22a33.56,33.56,0,0,0,3.43,4,31.91,31.91,0,0,1,4.82,6c2.93,5.23,2.67,10.43-6.55,15.59a3.71,3.71,0,0,1-5.1-1.55,3.94,3.94,0,0,1,1.5-5.26c3.85-2.15,4.34-3.66,3.63-4.92a28.07,28.07,0,0,0-3.7-4.47,39.61,39.61,0,0,1-4.26-5.07c-3.43-5.21-4-10.55,4.4-16.14Zm42.41,0a3.7,3.7,0,0,1,5.2,1.17,4,4,0,0,1-1.14,5.37c-3.19,2.11-3.2,3.75-2.23,5.22a33.56,33.56,0,0,0,3.43,4,31.91,31.91,0,0,1,4.82,6c2.93,5.23,2.68,10.43-6.54,15.59a3.71,3.71,0,0,1-5.1-1.55,3.94,3.94,0,0,1,1.5-5.26c3.85-2.15,4.33-3.65,3.62-4.92a28.07,28.07,0,0,0-3.7-4.47,39.61,39.61,0,0,1-4.26-5.07c-3.43-5.22-4.06-10.55,4.4-16.14Zm-21.2,0a3.7,3.7,0,0,1,5.2,1.17,4,4,0,0,1-1.14,5.37c-3.19,2.11-3.21,3.75-2.23,5.22a33.56,33.56,0,0,0,3.43,4,31.91,31.91,0,0,1,4.82,6c2.93,5.23,2.68,10.43-6.54,15.59a3.71,3.71,0,0,1-5.1-1.55,3.94,3.94,0,0,1,1.5-5.26c3.85-2.15,4.33-3.66,3.62-4.92a28.07,28.07,0,0,0-3.7-4.47,38.81,38.81,0,0,1-4.26-5.07c-3.44-5.21-4.05-10.55,4.4-16.14ZM500.66,289.67h36.12a37.39,37.39,0,0,1-20.72-33.37V226.25h74.58v.39a3.73,3.73,0,0,1,1-.13H601v0h0a11.8,11.8,0,0,1,11.73,11.75h0v0h0v8.1h0v0h0v0a11.68,11.68,0,0,1-3.18,8,2.33,2.33,0,0,1-.26.28,11.71,11.71,0,0,1-8.32,3.45v0h-9.34a4,4,0,0,1-1-.15,37.38,37.38,0,0,1-20.67,31.65h38.15a1.58,1.58,0,0,1,1.42,1.7v7.15a1.57,1.57,0,0,1-1.42,1.69H500.68a1.58,1.58,0,0,1-1.42-1.69v-7.15a1.56,1.56,0,0,1,1.4-1.71Z"/><path class="cls-2" d="M393,229.09h-5.54V245.6H393v0a4.17,4.17,0,0,0,3-1.27l.14-.12a4.19,4.19,0,0,0,1.1-2.81h0v0h0V233.3h0v0h0a4.15,4.15,0,0,0-1.24-3,4.19,4.19,0,0,0-2.95-1.25h0v0ZM322.9,172.94a3.7,3.7,0,0,1,5.2,1.17,4,4,0,0,1-1.14,5.37c-3.19,2.11-3.21,3.75-2.23,5.22a33.56,33.56,0,0,0,3.43,4,31.91,31.91,0,0,1,4.82,6c2.93,5.23,2.67,10.43-6.55,15.59a3.71,3.71,0,0,1-5.1-1.55,3.94,3.94,0,0,1,1.5-5.26c3.85-2.15,4.34-3.66,3.63-4.92a28.07,28.07,0,0,0-3.7-4.47,39.61,39.61,0,0,1-4.26-5.07c-3.43-5.21-4.05-10.55,4.4-16.14Zm42.41,0a3.7,3.7,0,0,1,5.2,1.17,4,4,0,0,1-1.14,5.37c-3.19,2.11-3.2,3.75-2.23,5.22a33.56,33.56,0,0,0,3.43,4,31.91,31.91,0,0,1,4.82,6c2.93,5.23,2.68,10.43-6.54,15.59a3.71,3.71,0,0,1-5.1-1.55,3.94,3.94,0,0,1,1.5-5.26c3.85-2.15,4.33-3.65,3.62-4.92a28.07,28.07,0,0,0-3.7-4.47,39.61,39.61,0,0,1-4.26-5.07c-3.43-5.22-4.06-10.55,4.4-16.14Zm-21.2,0a3.7,3.7,0,0,1,5.2,1.17,4,4,0,0,1-1.14,5.37c-3.19,2.11-3.21,3.75-2.23,5.22a33.56,33.56,0,0,0,3.43,4,31.91,31.91,0,0,1,4.82,6c2.93,5.23,2.68,10.43-6.54,15.59a3.71,3.71,0,0,1-5.1-1.55,3.94,3.94,0,0,1,1.5-5.26c3.85-2.15,4.33-3.66,3.62-4.92a28.07,28.07,0,0,0-3.7-4.47,38.81,38.81,0,0,1-4.26-5.07c-3.44-5.21-4-10.55,4.4-16.14ZM292.66,284.67h36.12a37.39,37.39,0,0,1-20.72-33.37V221.25h74.58v.39a3.73,3.73,0,0,1,1-.13H393v0h0a11.8,11.8,0,0,1,11.73,11.75h0v0h0v8.1h0v0h0v0a11.68,11.68,0,0,1-3.18,8,2.33,2.33,0,0,1-.26.28,11.71,11.71,0,0,1-8.32,3.45v0h-9.34a4,4,0,0,1-1-.15,37.38,37.38,0,0,1-20.67,31.65h38.15a1.58,1.58,0,0,1,1.42,1.7v7.15a1.57,1.57,0,0,1-1.42,1.69H292.68a1.58,1.58,0,0,1-1.42-1.69v-7.15a1.56,1.56,0,0,1,1.4-1.71Z"/><path class="cls-2" d="M296,69.09h-5.54V85.6H296v0a4.17,4.17,0,0,0,3-1.27l.14-.12a4.19,4.19,0,0,0,1.1-2.81h0v0h0V73.3h0v0h0a4.15,4.15,0,0,0-1.24-3A4.19,4.19,0,0,0,296,69.07h0v0Zm-70-56.15a3.7,3.7,0,0,1,5.2,1.17A4,4,0,0,1,230,19.48c-3.19,2.11-3.21,3.75-2.23,5.22a33.56,33.56,0,0,0,3.43,4,31.91,31.91,0,0,1,4.82,6c2.93,5.23,2.67,10.43-6.55,15.59a3.71,3.71,0,0,1-5.1-1.55,3.94,3.94,0,0,1,1.5-5.26c3.85-2.15,4.34-3.66,3.63-4.92a28.07,28.07,0,0,0-3.7-4.47,39.61,39.61,0,0,1-4.26-5.07c-3.43-5.21-4.05-10.55,4.4-16.14Zm42.41,0a3.7,3.7,0,0,1,5.2,1.17,4,4,0,0,1-1.14,5.37c-3.19,2.11-3.2,3.75-2.23,5.22a33.56,33.56,0,0,0,3.43,4,31.91,31.91,0,0,1,4.82,6c2.93,5.23,2.68,10.43-6.54,15.59a3.71,3.71,0,0,1-5.1-1.55,3.94,3.94,0,0,1,1.5-5.26c3.85-2.15,4.33-3.65,3.62-4.92a28.07,28.07,0,0,0-3.7-4.47,39.61,39.61,0,0,1-4.26-5.07c-3.43-5.22-4.06-10.55,4.4-16.14Zm-21.2,0a3.7,3.7,0,0,1,5.2,1.17,4,4,0,0,1-1.14,5.37c-3.19,2.11-3.21,3.75-2.23,5.22a33.56,33.56,0,0,0,3.43,4,31.91,31.91,0,0,1,4.82,6c2.93,5.23,2.68,10.43-6.54,15.59a3.71,3.71,0,0,1-5.1-1.55,3.94,3.94,0,0,1,1.5-5.26c3.85-2.15,4.33-3.66,3.62-4.92a28.07,28.07,0,0,0-3.7-4.47,38.81,38.81,0,0,1-4.26-5.07c-3.44-5.21-4.05-10.55,4.4-16.14ZM195.66,124.67h36.12A37.39,37.39,0,0,1,211.06,91.3v-30h74.58v.39a3.73,3.73,0,0,1,1-.13H296v0h0a11.8,11.8,0,0,1,11.73,11.75h0v0h0v8.1h0v0h0v0a11.68,11.68,0,0,1-3.18,8,2.33,2.33,0,0,1-.26.28A11.71,11.71,0,0,1,296,93.16v0h-9.34a4,4,0,0,1-1-.15,37.38,37.38,0,0,1-20.67,31.65h38.15a1.58,1.58,0,0,1,1.42,1.7v7.15a1.57,1.57,0,0,1-1.42,1.69H195.68a1.58,1.58,0,0,1-1.42-1.69v-7.15a1.56,1.56,0,0,1,1.4-1.71Z"/><path class="cls-2" d="M1173,85.09h-5.54V101.6H1173v0a4.17,4.17,0,0,0,3-1.27l.14-.12a4.19,4.19,0,0,0,1.1-2.81h0v0h0V89.3h0v0h0a4.15,4.15,0,0,0-1.24-3,4.19,4.19,0,0,0-3-1.25h0v0Zm-70-56.15a3.7,3.7,0,0,1,5.2,1.17,4,4,0,0,1-1.14,5.37c-3.19,2.11-3.21,3.75-2.23,5.22a33.56,33.56,0,0,0,3.43,4,31.91,31.91,0,0,1,4.82,6c2.93,5.23,2.67,10.43-6.55,15.59a3.71,3.71,0,0,1-5.1-1.55,3.94,3.94,0,0,1,1.5-5.26c3.85-2.15,4.34-3.66,3.63-4.92a28.07,28.07,0,0,0-3.7-4.47,39.61,39.61,0,0,1-4.26-5.07c-3.43-5.21-4-10.55,4.4-16.14Zm42.41,0a3.7,3.7,0,0,1,5.2,1.17,4,4,0,0,1-1.14,5.37c-3.19,2.11-3.2,3.75-2.23,5.22a33.56,33.56,0,0,0,3.43,4,31.91,31.91,0,0,1,4.82,6c2.93,5.23,2.68,10.43-6.54,15.59a3.71,3.71,0,0,1-5.1-1.55,3.94,3.94,0,0,1,1.5-5.26c3.85-2.15,4.33-3.65,3.62-4.92a28.07,28.07,0,0,0-3.7-4.47,39.61,39.61,0,0,1-4.26-5.07c-3.43-5.22-4.06-10.55,4.4-16.14Zm-21.2,0a3.7,3.7,0,0,1,5.2,1.17,4,4,0,0,1-1.14,5.37c-3.19,2.11-3.21,3.75-2.23,5.22a33.56,33.56,0,0,0,3.43,4,31.91,31.91,0,0,1,4.82,6c2.93,5.23,2.68,10.43-6.54,15.59a3.71,3.71,0,0,1-5.1-1.55,3.94,3.94,0,0,1,1.5-5.26c3.85-2.15,4.33-3.66,3.62-4.92a28.07,28.07,0,0,0-3.7-4.47,38.81,38.81,0,0,1-4.26-5.07c-3.44-5.21-4-10.55,4.4-16.14Zm-51.45,111.73h36.12a37.39,37.39,0,0,1-20.72-33.37v-30h74.58v.39a3.73,3.73,0,0,1,1-.13H1173v0h0a11.8,11.8,0,0,1,11.73,11.75h0v0h0v8.1h0v0h0v0a11.68,11.68,0,0,1-3.18,8,2.33,2.33,0,0,1-.26.28,11.71,11.71,0,0,1-8.32,3.45v0h-9.34a4,4,0,0,1-1.05-.15,37.38,37.38,0,0,1-20.67,31.65h38.15a1.58,1.58,0,0,1,1.42,1.7v7.15a1.57,1.57,0,0,1-1.42,1.69h-107.4a1.58,1.58,0,0,1-1.42-1.69v-7.15a1.56,1.56,0,0,1,1.4-1.71Z"/><path class="cls-2" d="M626,551.09h-5.54V567.6H626v0a4.17,4.17,0,0,0,3-1.27l.14-.12a4.19,4.19,0,0,0,1.1-2.81h0v0h0V555.3h0v0h0a4.15,4.15,0,0,0-1.24-2.95,4.19,4.19,0,0,0-2.95-1.25h0v0ZM555.9,494.94a3.7,3.7,0,0,1,5.2,1.17,4,4,0,0,1-1.14,5.37c-3.19,2.11-3.21,3.75-2.23,5.22a33.56,33.56,0,0,0,3.43,4,31.91,31.91,0,0,1,4.82,6c2.93,5.23,2.67,10.43-6.55,15.59a3.71,3.71,0,0,1-5.1-1.55,3.94,3.94,0,0,1,1.5-5.26c3.85-2.15,4.34-3.66,3.63-4.92a28.07,28.07,0,0,0-3.7-4.47,39.61,39.61,0,0,1-4.26-5.07c-3.43-5.21-4-10.55,4.4-16.14Zm42.41,0a3.7,3.7,0,0,1,5.2,1.17,4,4,0,0,1-1.14,5.37c-3.19,2.11-3.2,3.75-2.23,5.22a33.56,33.56,0,0,0,3.43,4,31.91,31.91,0,0,1,4.82,6c2.93,5.23,2.68,10.43-6.54,15.59a3.71,3.71,0,0,1-5.1-1.55,3.94,3.94,0,0,1,1.5-5.26c3.85-2.15,4.33-3.65,3.62-4.92a28.07,28.07,0,0,0-3.7-4.47,39.61,39.61,0,0,1-4.26-5.07c-3.43-5.22-4.06-10.55,4.4-16.14Zm-21.2,0a3.7,3.7,0,0,1,5.2,1.17,4,4,0,0,1-1.14,5.37c-3.19,2.11-3.21,3.75-2.23,5.22a33.56,33.56,0,0,0,3.43,4,31.91,31.91,0,0,1,4.82,6c2.93,5.23,2.68,10.43-6.54,15.59a3.71,3.71,0,0,1-5.1-1.55,3.94,3.94,0,0,1,1.5-5.26c3.85-2.15,4.33-3.66,3.62-4.92a28.07,28.07,0,0,0-3.7-4.47,38.81,38.81,0,0,1-4.26-5.07c-3.44-5.21-4.05-10.55,4.4-16.14ZM525.66,606.67h36.12a37.39,37.39,0,0,1-20.72-33.37v-30h74.58v.39a3.73,3.73,0,0,1,1-.13H626v0h0a11.8,11.8,0,0,1,11.73,11.75h0v0h0v8.1h0v0h0v0a11.68,11.68,0,0,1-3.18,8,2.33,2.33,0,0,1-.26.28,11.71,11.71,0,0,1-8.32,3.45v0h-9.34a4,4,0,0,1-1-.15,37.38,37.38,0,0,1-20.67,31.65h38.15a1.58,1.58,0,0,1,1.42,1.7v7.15a1.57,1.57,0,0,1-1.42,1.69H525.68a1.58,1.58,0,0,1-1.42-1.69v-7.15a1.56,1.56,0,0,1,1.4-1.71Z"/><path class="cls-2" d="M1081,547.09h-5.54V563.6H1081v0a4.17,4.17,0,0,0,3-1.27l.14-.12a4.19,4.19,0,0,0,1.1-2.81h0v0h0V551.3h0v0h0a4.15,4.15,0,0,0-1.24-2.95,4.19,4.19,0,0,0-3-1.25h0v0Zm-70.05-56.15a3.7,3.7,0,0,1,5.2,1.17,4,4,0,0,1-1.14,5.37c-3.19,2.11-3.21,3.75-2.23,5.22a33.56,33.56,0,0,0,3.43,4,31.91,31.91,0,0,1,4.82,6c2.93,5.23,2.67,10.43-6.55,15.59a3.71,3.71,0,0,1-5.1-1.55,3.94,3.94,0,0,1,1.5-5.26c3.85-2.15,4.34-3.66,3.63-4.92a28.07,28.07,0,0,0-3.7-4.47,39.61,39.61,0,0,1-4.26-5.07c-3.43-5.21-4-10.55,4.4-16.14Zm42.41,0a3.7,3.7,0,0,1,5.2,1.17,4,4,0,0,1-1.14,5.37c-3.19,2.11-3.2,3.75-2.23,5.22a33.56,33.56,0,0,0,3.43,4,31.91,31.91,0,0,1,4.82,6c2.93,5.23,2.68,10.43-6.54,15.59a3.71,3.71,0,0,1-5.1-1.55,3.94,3.94,0,0,1,1.5-5.26c3.85-2.15,4.33-3.65,3.62-4.92a28.07,28.07,0,0,0-3.7-4.47,39.61,39.61,0,0,1-4.26-5.07c-3.43-5.22-4.06-10.55,4.4-16.14Zm-21.2,0a3.7,3.7,0,0,1,5.2,1.17,4,4,0,0,1-1.14,5.37c-3.19,2.11-3.21,3.75-2.23,5.22a33.56,33.56,0,0,0,3.43,4,31.91,31.91,0,0,1,4.82,6c2.93,5.23,2.68,10.43-6.54,15.59a3.71,3.71,0,0,1-5.1-1.55,3.94,3.94,0,0,1,1.5-5.26c3.85-2.15,4.33-3.66,3.62-4.92a28.07,28.07,0,0,0-3.7-4.47,38.81,38.81,0,0,1-4.26-5.07c-3.44-5.21-4.05-10.55,4.4-16.14ZM980.66,602.67h36.12a37.39,37.39,0,0,1-20.72-33.37v-30h74.58v.39a3.73,3.73,0,0,1,1-.13H1081v0h0a11.8,11.8,0,0,1,11.73,11.75h0v0h0v8.1h0v0h0v0a11.68,11.68,0,0,1-3.18,8,2.33,2.33,0,0,1-.26.28,11.71,11.71,0,0,1-8.32,3.45v0h-9.34a4,4,0,0,1-1.05-.15,37.38,37.38,0,0,1-20.67,31.65h38.15a1.58,1.58,0,0,1,1.42,1.7v7.15a1.57,1.57,0,0,1-1.42,1.69H980.68a1.58,1.58,0,0,1-1.42-1.69v-7.15a1.56,1.56,0,0,1,1.4-1.71Z"/><path class="cls-2" d="M1336,535.09h-5.54V551.6H1336v0a4.17,4.17,0,0,0,3-1.27l.14-.12a4.19,4.19,0,0,0,1.1-2.81h0v0h0V539.3h0v0h0a4.15,4.15,0,0,0-1.24-2.95,4.19,4.19,0,0,0-3-1.25h0v0Zm-70-56.15a3.7,3.7,0,0,1,5.2,1.17,4,4,0,0,1-1.14,5.37c-3.19,2.11-3.21,3.75-2.23,5.22a33.56,33.56,0,0,0,3.43,4,31.91,31.91,0,0,1,4.82,6c2.93,5.23,2.67,10.43-6.55,15.59a3.71,3.71,0,0,1-5.1-1.55,3.94,3.94,0,0,1,1.5-5.26c3.85-2.15,4.34-3.66,3.63-4.92a28.07,28.07,0,0,0-3.7-4.47,39.61,39.61,0,0,1-4.26-5.07c-3.43-5.21-4-10.55,4.4-16.14Zm42.41,0a3.7,3.7,0,0,1,5.2,1.17,4,4,0,0,1-1.14,5.37c-3.19,2.11-3.2,3.75-2.23,5.22a33.56,33.56,0,0,0,3.43,4,31.91,31.91,0,0,1,4.82,6c2.93,5.23,2.68,10.43-6.54,15.59a3.71,3.71,0,0,1-5.1-1.55,3.94,3.94,0,0,1,1.5-5.26c3.85-2.15,4.33-3.65,3.62-4.92a28.07,28.07,0,0,0-3.7-4.47,39.61,39.61,0,0,1-4.26-5.07c-3.43-5.22-4.06-10.55,4.4-16.14Zm-21.2,0a3.7,3.7,0,0,1,5.2,1.17,4,4,0,0,1-1.14,5.37c-3.19,2.11-3.21,3.75-2.23,5.22a33.56,33.56,0,0,0,3.43,4,31.91,31.91,0,0,1,4.82,6c2.93,5.23,2.68,10.43-6.54,15.59a3.71,3.71,0,0,1-5.1-1.55,3.94,3.94,0,0,1,1.5-5.26c3.85-2.15,4.33-3.66,3.62-4.92a28.07,28.07,0,0,0-3.7-4.47,38.81,38.81,0,0,1-4.26-5.07c-3.44-5.21-4-10.55,4.4-16.14Zm-51.45,111.73h36.12a37.39,37.39,0,0,1-20.72-33.37v-30h74.58v.39a3.73,3.73,0,0,1,1-.13H1336v0h0a11.8,11.8,0,0,1,11.73,11.75h0v0h0v8.1h0v0h0v0a11.68,11.68,0,0,1-3.18,8,2.33,2.33,0,0,1-.26.28,11.71,11.71,0,0,1-8.32,3.45v0h-9.34a4,4,0,0,1-1.05-.15,37.38,37.38,0,0,1-20.67,31.65h38.15a1.58,1.58,0,0,1,1.42,1.7v7.15a1.57,1.57,0,0,1-1.42,1.69h-107.4a1.58,1.58,0,0,1-1.42-1.69v-7.15a1.56,1.56,0,0,1,1.4-1.71Z"/><path class="cls-2" d="M382,555.09h-5.54V571.6H382v0a4.17,4.17,0,0,0,3-1.27l.14-.12a4.19,4.19,0,0,0,1.1-2.81h0v0h0V559.3h0v0h0a4.15,4.15,0,0,0-1.24-2.95,4.19,4.19,0,0,0-2.95-1.25h0v0ZM311.9,498.94a3.7,3.7,0,0,1,5.2,1.17,4,4,0,0,1-1.14,5.37c-3.19,2.11-3.21,3.75-2.23,5.22a33.56,33.56,0,0,0,3.43,4,31.91,31.91,0,0,1,4.82,6c2.93,5.23,2.67,10.43-6.55,15.59a3.71,3.71,0,0,1-5.1-1.55,3.94,3.94,0,0,1,1.5-5.26c3.85-2.15,4.34-3.66,3.63-4.92a28.07,28.07,0,0,0-3.7-4.47,39.61,39.61,0,0,1-4.26-5.07c-3.43-5.21-4.05-10.55,4.4-16.14Zm42.41,0a3.7,3.7,0,0,1,5.2,1.17,4,4,0,0,1-1.14,5.37c-3.19,2.11-3.2,3.75-2.23,5.22a33.56,33.56,0,0,0,3.43,4,31.91,31.91,0,0,1,4.82,6c2.93,5.23,2.68,10.43-6.54,15.59a3.71,3.71,0,0,1-5.1-1.55,3.94,3.94,0,0,1,1.5-5.26c3.85-2.15,4.33-3.65,3.62-4.92a28.07,28.07,0,0,0-3.7-4.47,39.61,39.61,0,0,1-4.26-5.07c-3.43-5.22-4.06-10.55,4.4-16.14Zm-21.2,0a3.7,3.7,0,0,1,5.2,1.17,4,4,0,0,1-1.14,5.37c-3.19,2.11-3.21,3.75-2.23,5.22a33.56,33.56,0,0,0,3.43,4,31.91,31.91,0,0,1,4.82,6c2.93,5.23,2.68,10.43-6.54,15.59a3.71,3.71,0,0,1-5.1-1.55,3.94,3.94,0,0,1,1.5-5.26c3.85-2.15,4.33-3.66,3.62-4.92a28.07,28.07,0,0,0-3.7-4.47,38.81,38.81,0,0,1-4.26-5.07c-3.44-5.21-4-10.55,4.4-16.14ZM281.66,610.67h36.12a37.39,37.39,0,0,1-20.72-33.37v-30h74.58v.39a3.73,3.73,0,0,1,1-.13H382v0h0a11.8,11.8,0,0,1,11.73,11.75h0v0h0v8.1h0v0h0v0a11.68,11.68,0,0,1-3.18,8,2.33,2.33,0,0,1-.26.28,11.71,11.71,0,0,1-8.32,3.45v0h-9.34a4,4,0,0,1-1-.15,37.38,37.38,0,0,1-20.67,31.65h38.15a1.58,1.58,0,0,1,1.42,1.7v7.15a1.57,1.57,0,0,1-1.42,1.69H281.68a1.58,1.58,0,0,1-1.42-1.69v-7.15a1.56,1.56,0,0,1,1.4-1.71Z"/><path class="cls-2" d="M140,237.09h-5.54V253.6H140v0a4.17,4.17,0,0,0,3-1.27l.14-.12a4.19,4.19,0,0,0,1.1-2.81h0v0h0V241.3h0v0h0a4.15,4.15,0,0,0-1.24-3,4.19,4.19,0,0,0-2.95-1.25h0v0Zm-70-56.15a3.7,3.7,0,0,1,5.2,1.17A4,4,0,0,1,74,187.48c-3.19,2.11-3.21,3.75-2.23,5.22a33.56,33.56,0,0,0,3.43,4,31.91,31.91,0,0,1,4.82,6c2.93,5.23,2.67,10.43-6.55,15.59a3.71,3.71,0,0,1-5.1-1.55,3.94,3.94,0,0,1,1.5-5.26c3.85-2.15,4.34-3.66,3.63-4.92a28.07,28.07,0,0,0-3.7-4.47,39.61,39.61,0,0,1-4.26-5.07c-3.43-5.21-4-10.55,4.4-16.14Zm42.41,0a3.7,3.7,0,0,1,5.2,1.17,4,4,0,0,1-1.14,5.37c-3.19,2.11-3.2,3.75-2.23,5.22a33.56,33.56,0,0,0,3.43,4,31.91,31.91,0,0,1,4.82,6c2.93,5.23,2.68,10.43-6.54,15.59a3.71,3.71,0,0,1-5.1-1.55,3.94,3.94,0,0,1,1.5-5.26c3.85-2.15,4.33-3.65,3.62-4.92a28.07,28.07,0,0,0-3.7-4.47,39.61,39.61,0,0,1-4.26-5.07c-3.43-5.22-4.06-10.55,4.4-16.14Zm-21.2,0a3.7,3.7,0,0,1,5.2,1.17,4,4,0,0,1-1.14,5.37c-3.19,2.11-3.21,3.75-2.23,5.22a33.56,33.56,0,0,0,3.43,4,31.91,31.91,0,0,1,4.82,6c2.93,5.23,2.68,10.43-6.54,15.59a3.71,3.71,0,0,1-5.1-1.55,3.94,3.94,0,0,1,1.5-5.26c3.85-2.15,4.33-3.66,3.62-4.92a28.07,28.07,0,0,0-3.7-4.47,38.81,38.81,0,0,1-4.26-5.07c-3.44-5.21-4-10.55,4.4-16.14ZM39.66,292.67H75.78A37.39,37.39,0,0,1,55.06,259.3V229.25h74.58v.39a3.73,3.73,0,0,1,1-.13H140v0h0a11.8,11.8,0,0,1,11.73,11.75h0v0h0v8.1h0v0h0v0a11.68,11.68,0,0,1-3.18,8,2.33,2.33,0,0,1-.26.28,11.71,11.71,0,0,1-8.32,3.45v0h-9.34a4,4,0,0,1-1.05-.15,37.38,37.38,0,0,1-20.67,31.65h38.15a1.58,1.58,0,0,1,1.42,1.7v7.15a1.57,1.57,0,0,1-1.42,1.69H39.68a1.58,1.58,0,0,1-1.42-1.69v-7.15a1.56,1.56,0,0,1,1.4-1.71Z"/><path class="cls-2" d="M353,386.09h-5.54V402.6H353v0a4.17,4.17,0,0,0,3-1.27l.14-.12a4.19,4.19,0,0,0,1.1-2.81h0v0h0V390.3h0v0h0a4.15,4.15,0,0,0-1.24-2.95,4.19,4.19,0,0,0-2.95-1.25h0v0ZM282.9,329.94a3.7,3.7,0,0,1,5.2,1.17,4,4,0,0,1-1.14,5.37c-3.19,2.11-3.21,3.75-2.23,5.22a33.56,33.56,0,0,0,3.43,4,31.91,31.91,0,0,1,4.82,6c2.93,5.23,2.67,10.43-6.55,15.59a3.71,3.71,0,0,1-5.1-1.55,3.94,3.94,0,0,1,1.5-5.26c3.85-2.15,4.34-3.66,3.63-4.92a28.07,28.07,0,0,0-3.7-4.47,39.61,39.61,0,0,1-4.26-5.07c-3.43-5.21-4.05-10.55,4.4-16.14Zm42.41,0a3.7,3.7,0,0,1,5.2,1.17,4,4,0,0,1-1.14,5.37c-3.19,2.11-3.2,3.75-2.23,5.22a33.56,33.56,0,0,0,3.43,4,31.91,31.91,0,0,1,4.82,6c2.93,5.23,2.68,10.43-6.54,15.59a3.71,3.71,0,0,1-5.1-1.55,3.94,3.94,0,0,1,1.5-5.26c3.85-2.15,4.33-3.65,3.62-4.92a28.07,28.07,0,0,0-3.7-4.47,39.61,39.61,0,0,1-4.26-5.07c-3.43-5.22-4.06-10.55,4.4-16.14Zm-21.2,0a3.7,3.7,0,0,1,5.2,1.17,4,4,0,0,1-1.14,5.37c-3.19,2.11-3.21,3.75-2.23,5.22a33.56,33.56,0,0,0,3.43,4,31.91,31.91,0,0,1,4.82,6c2.93,5.23,2.68,10.43-6.54,15.59a3.71,3.71,0,0,1-5.1-1.55,3.94,3.94,0,0,1,1.5-5.26c3.85-2.15,4.33-3.66,3.62-4.92a28.07,28.07,0,0,0-3.7-4.47,38.81,38.81,0,0,1-4.26-5.07c-3.44-5.21-4-10.55,4.4-16.14ZM252.66,441.67h36.12a37.39,37.39,0,0,1-20.72-33.37V378.25h74.58v.39a3.73,3.73,0,0,1,1-.13H353v0h0a11.8,11.8,0,0,1,11.73,11.75h0v0h0v8.1h0v0h0v0a11.68,11.68,0,0,1-3.18,8,2.33,2.33,0,0,1-.26.28,11.71,11.71,0,0,1-8.32,3.45v0h-9.34a4,4,0,0,1-1-.15,37.38,37.38,0,0,1-20.67,31.65h38.15a1.58,1.58,0,0,1,1.42,1.7v7.15a1.57,1.57,0,0,1-1.42,1.69H252.68a1.58,1.58,0,0,1-1.42-1.69v-7.15a1.56,1.56,0,0,1,1.4-1.71Z"/><path class="cls-2" d="M124,73.09h-5.54V89.6H124v0a4.17,4.17,0,0,0,3-1.27l.14-.12a4.19,4.19,0,0,0,1.1-2.81h0v0h0V77.3h0v0h0a4.15,4.15,0,0,0-1.24-3,4.19,4.19,0,0,0-3-1.25h0v0ZM53.9,16.94a3.7,3.7,0,0,1,5.2,1.17A4,4,0,0,1,58,23.48c-3.19,2.11-3.21,3.75-2.23,5.22a33.56,33.56,0,0,0,3.43,4,31.91,31.91,0,0,1,4.82,6c2.93,5.23,2.67,10.43-6.55,15.59a3.71,3.71,0,0,1-5.1-1.55,3.94,3.94,0,0,1,1.5-5.26c3.85-2.15,4.34-3.66,3.63-4.92a28.07,28.07,0,0,0-3.7-4.47,39.61,39.61,0,0,1-4.26-5.07c-3.43-5.21-4-10.55,4.4-16.14Zm42.41,0a3.7,3.7,0,0,1,5.2,1.17,4,4,0,0,1-1.14,5.37c-3.19,2.11-3.2,3.75-2.23,5.22a33.56,33.56,0,0,0,3.43,4,31.91,31.91,0,0,1,4.82,6c2.93,5.23,2.68,10.43-6.54,15.59a3.71,3.71,0,0,1-5.1-1.55,3.94,3.94,0,0,1,1.5-5.26c3.85-2.15,4.33-3.65,3.62-4.92a28.07,28.07,0,0,0-3.7-4.47,39.61,39.61,0,0,1-4.26-5.07c-3.43-5.22-4.06-10.55,4.4-16.14Zm-21.2,0a3.7,3.7,0,0,1,5.2,1.17,4,4,0,0,1-1.14,5.37C76,25.59,76,27.23,76.94,28.7a33.56,33.56,0,0,0,3.43,4,31.91,31.91,0,0,1,4.82,6c2.93,5.23,2.68,10.43-6.54,15.59a3.71,3.71,0,0,1-5.1-1.55,3.94,3.94,0,0,1,1.5-5.26c3.85-2.15,4.33-3.66,3.62-4.92A28.07,28.07,0,0,0,75,38.15a38.81,38.81,0,0,1-4.26-5.07c-3.44-5.21-4-10.55,4.4-16.14ZM23.66,128.67H59.78A37.39,37.39,0,0,1,39.06,95.3v-30h74.58v.39a3.73,3.73,0,0,1,1-.13H124v0h0a11.8,11.8,0,0,1,11.73,11.75h0v0h0v8.1h0v0h0v0a11.68,11.68,0,0,1-3.18,8,2.33,2.33,0,0,1-.26.28A11.71,11.71,0,0,1,124,97.16v0h-9.34A4,4,0,0,1,113.6,97a37.38,37.38,0,0,1-20.67,31.65h38.15a1.58,1.58,0,0,1,1.42,1.7v7.15a1.57,1.57,0,0,1-1.42,1.69H23.68a1.58,1.58,0,0,1-1.42-1.69v-7.15a1.56,1.56,0,0,1,1.4-1.71Z"/><path class="cls-2" d="M174,386.59h-5.54V403.1H174v0a4.17,4.17,0,0,0,3-1.27l.14-.12a4.19,4.19,0,0,0,1.1-2.81h0v0h0V390.8h0v0h0a4.15,4.15,0,0,0-1.24-2.95,4.19,4.19,0,0,0-2.95-1.25h0v0Zm-70-56.15a3.7,3.7,0,0,1,5.2,1.17A4,4,0,0,1,108,337c-3.19,2.11-3.21,3.75-2.23,5.22a33.56,33.56,0,0,0,3.43,4,31.91,31.91,0,0,1,4.82,6c2.93,5.23,2.67,10.43-6.55,15.59a3.71,3.71,0,0,1-5.1-1.55,3.94,3.94,0,0,1,1.5-5.26c3.85-2.15,4.34-3.66,3.63-4.92a28.07,28.07,0,0,0-3.7-4.47,39.61,39.61,0,0,1-4.26-5.07c-3.43-5.21-4-10.55,4.4-16.14Zm42.41,0a3.7,3.7,0,0,1,5.2,1.17,4,4,0,0,1-1.14,5.37c-3.19,2.11-3.2,3.75-2.23,5.22a33.56,33.56,0,0,0,3.43,4,31.91,31.91,0,0,1,4.82,6c2.93,5.23,2.68,10.43-6.54,15.59a3.71,3.71,0,0,1-5.1-1.55,3.94,3.94,0,0,1,1.5-5.26c3.85-2.15,4.33-3.65,3.62-4.92a28.07,28.07,0,0,0-3.7-4.47,39.61,39.61,0,0,1-4.26-5.07c-3.43-5.22-4.06-10.55,4.4-16.14Zm-21.2,0a3.7,3.7,0,0,1,5.2,1.17,4,4,0,0,1-1.14,5.37c-3.19,2.11-3.21,3.75-2.23,5.22a33.56,33.56,0,0,0,3.43,4,31.91,31.91,0,0,1,4.82,6c2.93,5.23,2.68,10.43-6.54,15.59a3.71,3.71,0,0,1-5.1-1.55,3.94,3.94,0,0,1,1.5-5.26c3.85-2.15,4.33-3.66,3.62-4.92a28.07,28.07,0,0,0-3.7-4.47,38.81,38.81,0,0,1-4.26-5.07c-3.44-5.21-4-10.55,4.4-16.14ZM73.66,442.17h36.12A37.39,37.39,0,0,1,89.06,408.8V378.75h74.58v.39a3.73,3.73,0,0,1,1-.13H174v0h0a11.8,11.8,0,0,1,11.73,11.75h0v0h0v8.1h0v0h0v0a11.68,11.68,0,0,1-3.18,8,2.33,2.33,0,0,1-.26.28,11.71,11.71,0,0,1-8.32,3.45v0h-9.34a4,4,0,0,1-1.05-.15,37.38,37.38,0,0,1-20.67,31.65h38.15a1.58,1.58,0,0,1,1.42,1.7V451a1.57,1.57,0,0,1-1.42,1.69H73.68A1.58,1.58,0,0,1,72.26,451v-7.15a1.56,1.56,0,0,1,1.4-1.71Z"/><path class="cls-2" d="M219,556.59h-5.54V573.1H219v0a4.17,4.17,0,0,0,3-1.27l.14-.12a4.19,4.19,0,0,0,1.1-2.81h0v0h0V560.8h0v0h0a4.15,4.15,0,0,0-1.24-2.95,4.19,4.19,0,0,0-2.95-1.25h0v0Zm-70-56.15a3.7,3.7,0,0,1,5.2,1.17A4,4,0,0,1,153,507c-3.19,2.11-3.21,3.75-2.23,5.22a33.56,33.56,0,0,0,3.43,4,31.91,31.91,0,0,1,4.82,6c2.93,5.23,2.67,10.43-6.55,15.59a3.71,3.71,0,0,1-5.1-1.55,3.94,3.94,0,0,1,1.5-5.26c3.85-2.15,4.34-3.66,3.63-4.92a28.07,28.07,0,0,0-3.7-4.47,39.61,39.61,0,0,1-4.26-5.07c-3.43-5.21-4.05-10.55,4.4-16.14Zm42.41,0a3.7,3.7,0,0,1,5.2,1.17,4,4,0,0,1-1.14,5.37c-3.19,2.11-3.2,3.75-2.23,5.22a33.56,33.56,0,0,0,3.43,4,31.91,31.91,0,0,1,4.82,6c2.93,5.23,2.68,10.43-6.54,15.59a3.71,3.71,0,0,1-5.1-1.55,3.94,3.94,0,0,1,1.5-5.26c3.85-2.15,4.33-3.65,3.62-4.92a28.07,28.07,0,0,0-3.7-4.47,39.61,39.61,0,0,1-4.26-5.07c-3.43-5.22-4.06-10.55,4.4-16.14Zm-21.2,0a3.7,3.7,0,0,1,5.2,1.17,4,4,0,0,1-1.14,5.37c-3.19,2.11-3.21,3.75-2.23,5.22a33.56,33.56,0,0,0,3.43,4,31.91,31.91,0,0,1,4.82,6c2.93,5.23,2.68,10.43-6.54,15.59a3.71,3.71,0,0,1-5.1-1.55,3.94,3.94,0,0,1,1.5-5.26c3.85-2.15,4.33-3.66,3.62-4.92a28.07,28.07,0,0,0-3.7-4.47,38.81,38.81,0,0,1-4.26-5.07c-3.44-5.21-4.05-10.55,4.4-16.14ZM118.66,612.17h36.12a37.39,37.39,0,0,1-20.72-33.37v-30h74.58v.39a3.73,3.73,0,0,1,1-.13H219v0h0a11.8,11.8,0,0,1,11.73,11.75h0v0h0v8.1h0v0h0v0a11.68,11.68,0,0,1-3.18,8,2.33,2.33,0,0,1-.26.28,11.71,11.71,0,0,1-8.32,3.45v0h-9.34a4,4,0,0,1-1.05-.15,37.38,37.38,0,0,1-20.67,31.65h38.15a1.58,1.58,0,0,1,1.42,1.7V621a1.57,1.57,0,0,1-1.42,1.69H118.68a1.58,1.58,0,0,1-1.42-1.69v-7.15a1.56,1.56,0,0,1,1.4-1.71Z"/><path class="cls-2" d="M1336,331.59h-5.54V348.1H1336v0a4.17,4.17,0,0,0,3-1.27l.14-.12a4.19,4.19,0,0,0,1.1-2.81h0v0h0V335.8h0v0h0a4.15,4.15,0,0,0-1.24-2.95,4.19,4.19,0,0,0-3-1.25h0v0Zm-70-56.15a3.7,3.7,0,0,1,5.2,1.17A4,4,0,0,1,1270,282c-3.19,2.11-3.21,3.75-2.23,5.22a33.56,33.56,0,0,0,3.43,4,31.91,31.91,0,0,1,4.82,6c2.93,5.23,2.67,10.43-6.55,15.59a3.71,3.71,0,0,1-5.1-1.55,3.94,3.94,0,0,1,1.5-5.26c3.85-2.15,4.34-3.66,3.63-4.92a28.07,28.07,0,0,0-3.7-4.47,39.61,39.61,0,0,1-4.26-5.07c-3.43-5.21-4-10.55,4.4-16.14Zm42.41,0a3.7,3.7,0,0,1,5.2,1.17,4,4,0,0,1-1.14,5.37c-3.19,2.11-3.2,3.75-2.23,5.22a33.56,33.56,0,0,0,3.43,4,31.91,31.91,0,0,1,4.82,6c2.93,5.23,2.68,10.43-6.54,15.59a3.71,3.71,0,0,1-5.1-1.55,3.94,3.94,0,0,1,1.5-5.26c3.85-2.15,4.33-3.65,3.62-4.92a28.07,28.07,0,0,0-3.7-4.47,39.61,39.61,0,0,1-4.26-5.07c-3.43-5.22-4.06-10.55,4.4-16.14Zm-21.2,0a3.7,3.7,0,0,1,5.2,1.17,4,4,0,0,1-1.14,5.37c-3.19,2.11-3.21,3.75-2.23,5.22a33.56,33.56,0,0,0,3.43,4,31.91,31.91,0,0,1,4.82,6c2.93,5.23,2.68,10.43-6.54,15.59a3.71,3.71,0,0,1-5.1-1.55,3.94,3.94,0,0,1,1.5-5.26c3.85-2.15,4.33-3.66,3.62-4.92a28.07,28.07,0,0,0-3.7-4.47,38.81,38.81,0,0,1-4.26-5.07c-3.44-5.21-4-10.55,4.4-16.14Zm-51.45,111.73h36.12a37.39,37.39,0,0,1-20.72-33.37V323.75h74.58v.39a3.73,3.73,0,0,1,1-.13H1336v0h0a11.8,11.8,0,0,1,11.73,11.75h0v0h0v8.1h0v0h0v0a11.68,11.68,0,0,1-3.18,8,2.33,2.33,0,0,1-.26.28,11.71,11.71,0,0,1-8.32,3.45v0h-9.34a4,4,0,0,1-1.05-.15,37.38,37.38,0,0,1-20.67,31.65h38.15a1.58,1.58,0,0,1,1.42,1.7V396a1.57,1.57,0,0,1-1.42,1.69h-107.4a1.58,1.58,0,0,1-1.42-1.69v-7.15a1.56,1.56,0,0,1,1.4-1.71Z"/><path class="cls-2" d="M1343,158.59h-5.54V175.1H1343v0a4.17,4.17,0,0,0,3-1.27l.14-.12a4.19,4.19,0,0,0,1.1-2.81h0v0h0V162.8h0v0h0a4.15,4.15,0,0,0-1.24-3,4.19,4.19,0,0,0-3-1.25h0v0Zm-70-56.15a3.7,3.7,0,0,1,5.2,1.17A4,4,0,0,1,1277,109c-3.19,2.11-3.21,3.75-2.23,5.22a33.56,33.56,0,0,0,3.43,4,31.91,31.91,0,0,1,4.82,6c2.93,5.23,2.67,10.43-6.55,15.59a3.71,3.71,0,0,1-5.1-1.55,3.94,3.94,0,0,1,1.5-5.26c3.85-2.15,4.34-3.66,3.63-4.92a28.07,28.07,0,0,0-3.7-4.47,39.61,39.61,0,0,1-4.26-5.07c-3.43-5.21-4-10.55,4.4-16.14Zm42.41,0a3.7,3.7,0,0,1,5.2,1.17,4,4,0,0,1-1.14,5.37c-3.19,2.11-3.2,3.75-2.23,5.22a33.56,33.56,0,0,0,3.43,4,31.91,31.91,0,0,1,4.82,6c2.93,5.23,2.68,10.43-6.54,15.59a3.71,3.71,0,0,1-5.1-1.55,3.94,3.94,0,0,1,1.5-5.26c3.85-2.15,4.33-3.65,3.62-4.92a28.07,28.07,0,0,0-3.7-4.47,39.61,39.61,0,0,1-4.26-5.07c-3.43-5.22-4.06-10.55,4.4-16.14Zm-21.2,0a3.7,3.7,0,0,1,5.2,1.17,4,4,0,0,1-1.14,5.37c-3.19,2.11-3.21,3.75-2.23,5.22a33.56,33.56,0,0,0,3.43,4,31.91,31.91,0,0,1,4.82,6c2.93,5.23,2.68,10.43-6.54,15.59a3.71,3.71,0,0,1-5.1-1.55,3.94,3.94,0,0,1,1.5-5.26c3.85-2.15,4.33-3.66,3.62-4.92a28.07,28.07,0,0,0-3.7-4.47,38.81,38.81,0,0,1-4.26-5.07c-3.44-5.21-4-10.55,4.4-16.14Zm-51.45,111.73h36.12a37.39,37.39,0,0,1-20.72-33.37V150.75h74.58v.39a3.73,3.73,0,0,1,1-.13H1343v0h0a11.8,11.8,0,0,1,11.73,11.75h0v0h0v8.1h0v0h0v0a11.68,11.68,0,0,1-3.18,8,2.33,2.33,0,0,1-.26.28,11.71,11.71,0,0,1-8.32,3.45v0h-9.34a4,4,0,0,1-1.05-.15,37.38,37.38,0,0,1-20.67,31.65h38.15a1.58,1.58,0,0,1,1.42,1.7V223a1.57,1.57,0,0,1-1.42,1.69h-107.4a1.58,1.58,0,0,1-1.42-1.69v-7.15a1.56,1.56,0,0,1,1.4-1.71Z"/><path class="cls-2" d="M728,402.59h-5.54V419.1H728v0a4.17,4.17,0,0,0,3-1.27l.14-.12a4.19,4.19,0,0,0,1.1-2.81h0v0h0V406.8h0v0h0a4.15,4.15,0,0,0-1.24-2.95,4.19,4.19,0,0,0-2.95-1.25h0v0ZM657.9,346.44a3.7,3.7,0,0,1,5.2,1.17A4,4,0,0,1,662,353c-3.19,2.11-3.21,3.75-2.23,5.22a33.56,33.56,0,0,0,3.43,4,31.91,31.91,0,0,1,4.82,6c2.93,5.23,2.67,10.43-6.55,15.59a3.71,3.71,0,0,1-5.1-1.55,3.94,3.94,0,0,1,1.5-5.26c3.85-2.15,4.34-3.66,3.63-4.92a28.07,28.07,0,0,0-3.7-4.47,39.61,39.61,0,0,1-4.26-5.07c-3.43-5.21-4-10.55,4.4-16.14Zm42.41,0a3.7,3.7,0,0,1,5.2,1.17,4,4,0,0,1-1.14,5.37c-3.19,2.11-3.2,3.75-2.23,5.22a33.56,33.56,0,0,0,3.43,4,31.91,31.91,0,0,1,4.82,6c2.93,5.23,2.68,10.43-6.54,15.59a3.71,3.71,0,0,1-5.1-1.55,3.94,3.94,0,0,1,1.5-5.26c3.85-2.15,4.33-3.65,3.62-4.92a28.07,28.07,0,0,0-3.7-4.47,39.61,39.61,0,0,1-4.26-5.07c-3.43-5.22-4.06-10.55,4.4-16.14Zm-21.2,0a3.7,3.7,0,0,1,5.2,1.17,4,4,0,0,1-1.14,5.37c-3.19,2.11-3.21,3.75-2.23,5.22a33.56,33.56,0,0,0,3.43,4,31.91,31.91,0,0,1,4.82,6c2.93,5.23,2.68,10.43-6.54,15.59a3.71,3.71,0,0,1-5.1-1.55,3.94,3.94,0,0,1,1.5-5.26c3.85-2.15,4.33-3.66,3.62-4.92a28.07,28.07,0,0,0-3.7-4.47,38.81,38.81,0,0,1-4.26-5.07c-3.44-5.21-4.05-10.55,4.4-16.14ZM627.66,458.17h36.12a37.39,37.39,0,0,1-20.72-33.37V394.75h74.58v.39a3.73,3.73,0,0,1,1-.13H728v0h0a11.8,11.8,0,0,1,11.73,11.75h0v0h0v8.1h0v0h0v0a11.68,11.68,0,0,1-3.18,8,2.33,2.33,0,0,1-.26.28,11.71,11.71,0,0,1-8.32,3.45v0h-9.34a4,4,0,0,1-1-.15,37.38,37.38,0,0,1-20.67,31.65h38.15a1.58,1.58,0,0,1,1.42,1.7V467a1.57,1.57,0,0,1-1.42,1.69H627.68a1.58,1.58,0,0,1-1.42-1.69v-7.15a1.56,1.56,0,0,1,1.4-1.71Z"/><path class="cls-2" d="M287.79,693.91h-4.67v13.93h4.68v0a3.56,3.56,0,0,0,2.5-1.07l.12-.11a3.53,3.53,0,0,0,.93-2.36h0v0h0v-6.84h0v0h0a3.59,3.59,0,0,0-3.54-3.55h0Zm-59.12-47.39a3.12,3.12,0,0,1,4.39,1,3.34,3.34,0,0,1-1,4.53c-2.69,1.78-2.71,3.16-1.88,4.4a28.86,28.86,0,0,0,2.89,3.41,27.09,27.09,0,0,1,4.07,5.08c2.47,4.42,2.26,8.81-5.53,13.16a3.12,3.12,0,0,1-4.3-1.31,3.33,3.33,0,0,1,1.27-4.44c3.24-1.81,3.66-3.08,3.06-4.15a24,24,0,0,0-3.12-3.77,34.31,34.31,0,0,1-3.6-4.28c-2.89-4.4-3.42-8.9,3.71-13.62Zm35.8,0a3.11,3.11,0,0,1,4.38,1,3.34,3.34,0,0,1-1,4.53c-2.69,1.78-2.7,3.16-1.88,4.4a28.08,28.08,0,0,0,2.9,3.41,26.64,26.64,0,0,1,4.06,5.08c2.48,4.42,2.27,8.81-5.52,13.16a3.12,3.12,0,0,1-4.3-1.31,3.33,3.33,0,0,1,1.27-4.44c3.25-1.81,3.65-3.08,3.05-4.15a23.45,23.45,0,0,0-3.12-3.77,34.31,34.31,0,0,1-3.6-4.28c-2.89-4.4-3.42-8.9,3.72-13.62Zm-17.9,0a3.12,3.12,0,0,1,4.39,1,3.34,3.34,0,0,1-1,4.53c-2.69,1.78-2.71,3.16-1.88,4.4a28.86,28.86,0,0,0,2.89,3.41,27.09,27.09,0,0,1,4.07,5.08c2.47,4.42,2.26,8.81-5.52,13.16a3.12,3.12,0,0,1-4.3-1.31,3.33,3.33,0,0,1,1.26-4.44c3.25-1.81,3.66-3.08,3.06-4.15a24,24,0,0,0-3.12-3.77,33.47,33.47,0,0,1-3.6-4.28c-2.9-4.4-3.42-8.9,3.71-13.62Zm-43.42,94.29h30.49a31.54,31.54,0,0,1-17.49-28.16V687.29h62.94v.33a3,3,0,0,1,.85-.11h7.9v0h0a9.83,9.83,0,0,1,7,2.9,9.93,9.93,0,0,1,2.93,7h0v0h0v6.84h0v0h0v0a9.9,9.9,0,0,1-2.68,6.74c-.07.09-.15.16-.22.24a10,10,0,0,1-7,2.91v0h-7.89a3.23,3.23,0,0,1-.88-.13,31.53,31.53,0,0,1-17.45,26.71h32.2a1.33,1.33,0,0,1,1.2,1.43v6a1.32,1.32,0,0,1-1.2,1.42H203.17a1.33,1.33,0,0,1-1.2-1.42v-6a1.32,1.32,0,0,1,1.18-1.45Z"/><path class="cls-2" d="M493.94,690.27h-4.68v13.94h4.68a3.53,3.53,0,0,0,2.5-1.06l.12-.11a3.53,3.53,0,0,0,.93-2.36h0v0h0v-6.83h0v0h0a3.55,3.55,0,0,0-1.05-2.5,3.59,3.59,0,0,0-2.49-1h0Zm-59.12-47.38a3.12,3.12,0,0,1,4.39,1,3.36,3.36,0,0,1-1,4.54c-2.69,1.78-2.71,3.16-1.88,4.4a28,28,0,0,0,2.9,3.4,26.7,26.7,0,0,1,4.06,5.09c2.48,4.42,2.26,8.8-5.52,13.16a3.13,3.13,0,0,1-4.31-1.31,3.33,3.33,0,0,1,1.27-4.44c3.25-1.81,3.66-3.09,3.06-4.15a23,23,0,0,0-3.12-3.77,34.31,34.31,0,0,1-3.6-4.28c-2.89-4.4-3.41-8.91,3.72-13.62Zm35.79,0a3.12,3.12,0,0,1,4.39,1,3.37,3.37,0,0,1-1,4.54c-2.7,1.78-2.71,3.16-1.89,4.4a28,28,0,0,0,2.9,3.4,27.15,27.15,0,0,1,4.07,5.09c2.47,4.42,2.26,8.8-5.52,13.16a3.13,3.13,0,0,1-4.31-1.31,3.33,3.33,0,0,1,1.27-4.44c3.25-1.81,3.65-3.08,3.05-4.15a23,23,0,0,0-3.12-3.77,33.38,33.38,0,0,1-3.59-4.28c-2.9-4.41-3.43-8.91,3.71-13.62Zm-17.89,0a3.12,3.12,0,0,1,4.39,1,3.36,3.36,0,0,1-1,4.54c-2.69,1.78-2.71,3.16-1.88,4.4a28,28,0,0,0,2.9,3.4,26.7,26.7,0,0,1,4.06,5.09c2.48,4.42,2.27,8.8-5.52,13.16a3.12,3.12,0,0,1-4.3-1.31,3.33,3.33,0,0,1,1.27-4.44c3.25-1.81,3.65-3.09,3.05-4.15a23,23,0,0,0-3.12-3.77,33.47,33.47,0,0,1-3.6-4.28c-2.9-4.4-3.41-8.91,3.72-13.62ZM409.3,737.18h30.48A31.56,31.56,0,0,1,422.29,709V683.66h62.94V684a3,3,0,0,1,.86-.11H494a10,10,0,0,1,9.9,9.92h0v0h0v6.83h0v0h0v0a9.89,9.89,0,0,1-2.68,6.74,2.39,2.39,0,0,1-.22.23,10,10,0,0,1-7,2.92h-7.88a3.68,3.68,0,0,1-.89-.12,31.56,31.56,0,0,1-17.44,26.71H500a1.33,1.33,0,0,1,1.2,1.43v6a1.32,1.32,0,0,1-1.2,1.42H409.31a1.33,1.33,0,0,1-1.2-1.42v-6a1.33,1.33,0,0,1,1.19-1.45Z"/><path class="cls-2" d="M688.94,679.27h-4.68v13.94h4.68a3.53,3.53,0,0,0,2.5-1.06l.12-.11a3.53,3.53,0,0,0,.93-2.36h0v0h0v-6.83h0v0h0a3.55,3.55,0,0,0-1-2.5,3.59,3.59,0,0,0-2.49-1h0Zm-59.12-47.38a3.12,3.12,0,0,1,4.39,1,3.36,3.36,0,0,1-1,4.54c-2.69,1.78-2.71,3.16-1.88,4.4a28,28,0,0,0,2.9,3.4,26.7,26.7,0,0,1,4.06,5.09c2.48,4.42,2.26,8.8-5.52,13.16a3.13,3.13,0,0,1-4.31-1.31,3.33,3.33,0,0,1,1.27-4.44c3.25-1.81,3.66-3.09,3.06-4.15a23,23,0,0,0-3.12-3.77,34.31,34.31,0,0,1-3.6-4.28c-2.89-4.4-3.41-8.91,3.72-13.62Zm35.79,0a3.12,3.12,0,0,1,4.39,1,3.37,3.37,0,0,1-1,4.54c-2.7,1.78-2.71,3.16-1.89,4.4a28,28,0,0,0,2.9,3.4,27.15,27.15,0,0,1,4.07,5.09c2.47,4.42,2.26,8.8-5.52,13.16a3.13,3.13,0,0,1-4.31-1.31,3.33,3.33,0,0,1,1.27-4.44c3.25-1.81,3.65-3.08,3.05-4.15a23,23,0,0,0-3.12-3.77,33.38,33.38,0,0,1-3.59-4.28c-2.9-4.41-3.43-8.91,3.71-13.62Zm-17.89,0a3.12,3.12,0,0,1,4.39,1,3.36,3.36,0,0,1-1,4.54c-2.69,1.78-2.71,3.16-1.88,4.4a28,28,0,0,0,2.9,3.4,26.7,26.7,0,0,1,4.06,5.09c2.48,4.42,2.27,8.8-5.52,13.16a3.12,3.12,0,0,1-4.3-1.31,3.33,3.33,0,0,1,1.27-4.44c3.25-1.81,3.65-3.09,3.05-4.15a23,23,0,0,0-3.12-3.77,33.47,33.47,0,0,1-3.6-4.28c-2.9-4.4-3.41-8.91,3.72-13.62ZM604.3,726.18h30.48A31.56,31.56,0,0,1,617.29,698V672.66h62.94V673a3,3,0,0,1,.86-.11H689a10,10,0,0,1,9.9,9.92h0v0h0v6.83h0v0h0v0a9.89,9.89,0,0,1-2.68,6.74,2.39,2.39,0,0,1-.22.23,10,10,0,0,1-7,2.92h-7.88a3.68,3.68,0,0,1-.89-.12,31.56,31.56,0,0,1-17.44,26.71H695a1.33,1.33,0,0,1,1.2,1.43v6a1.32,1.32,0,0,1-1.2,1.42H604.31a1.33,1.33,0,0,1-1.2-1.42v-6a1.33,1.33,0,0,1,1.19-1.45Z"/><path class="cls-2" d="M951.94,668.27h-4.68v13.94h4.68a3.53,3.53,0,0,0,2.5-1.06l.12-.11a3.53,3.53,0,0,0,.93-2.36h0v0h0v-6.83h0v0h0a3.55,3.55,0,0,0-1-2.5,3.59,3.59,0,0,0-2.49-1h0Zm-59.12-47.38a3.12,3.12,0,0,1,4.39,1,3.36,3.36,0,0,1-1,4.54c-2.69,1.78-2.71,3.16-1.88,4.4a28,28,0,0,0,2.9,3.4,26.7,26.7,0,0,1,4.06,5.09c2.48,4.42,2.26,8.8-5.52,13.16a3.13,3.13,0,0,1-4.31-1.31,3.33,3.33,0,0,1,1.27-4.44c3.25-1.81,3.66-3.09,3.06-4.15a23,23,0,0,0-3.12-3.77,34.31,34.31,0,0,1-3.6-4.28c-2.89-4.4-3.41-8.91,3.72-13.62Zm35.79,0a3.12,3.12,0,0,1,4.39,1,3.37,3.37,0,0,1-1,4.54c-2.7,1.78-2.71,3.16-1.89,4.4a28,28,0,0,0,2.9,3.4,27.15,27.15,0,0,1,4.07,5.09c2.47,4.42,2.26,8.8-5.52,13.16a3.13,3.13,0,0,1-4.31-1.31,3.33,3.33,0,0,1,1.27-4.44c3.25-1.81,3.65-3.08,3.05-4.15a23,23,0,0,0-3.12-3.77,33.38,33.38,0,0,1-3.59-4.28c-2.9-4.41-3.43-8.91,3.71-13.62Zm-17.89,0a3.12,3.12,0,0,1,4.39,1,3.36,3.36,0,0,1-1,4.54c-2.69,1.78-2.71,3.16-1.88,4.4a28,28,0,0,0,2.9,3.4,26.7,26.7,0,0,1,4.06,5.09c2.48,4.42,2.27,8.8-5.52,13.16a3.12,3.12,0,0,1-4.3-1.31,3.33,3.33,0,0,1,1.27-4.44c3.25-1.81,3.65-3.09,3.05-4.15a23,23,0,0,0-3.12-3.77,33.47,33.47,0,0,1-3.6-4.28c-2.9-4.4-3.41-8.91,3.72-13.62ZM867.3,715.18h30.48A31.56,31.56,0,0,1,880.29,687V661.66h62.94V662a3,3,0,0,1,.86-.11H952a10,10,0,0,1,9.9,9.92h0v0h0v6.83h0v0h0v0a9.89,9.89,0,0,1-2.68,6.74,2.39,2.39,0,0,1-.22.23,10,10,0,0,1-7,2.92h-7.88a3.68,3.68,0,0,1-.89-.12,31.56,31.56,0,0,1-17.44,26.71H958a1.33,1.33,0,0,1,1.2,1.43v6a1.32,1.32,0,0,1-1.2,1.42H867.31a1.33,1.33,0,0,1-1.2-1.42v-6a1.33,1.33,0,0,1,1.19-1.45Z"/><path class="cls-2" d="M1192.94,664.27h-4.68v13.94h4.68a3.53,3.53,0,0,0,2.5-1.06l.12-.11a3.53,3.53,0,0,0,.93-2.36h0v0h0v-6.83h0v0h0a3.55,3.55,0,0,0-1-2.5,3.59,3.59,0,0,0-2.49-1h0Zm-59.12-47.38a3.12,3.12,0,0,1,4.39,1,3.36,3.36,0,0,1-1,4.54c-2.69,1.78-2.71,3.16-1.88,4.4a28,28,0,0,0,2.9,3.4,26.7,26.7,0,0,1,4.06,5.09c2.48,4.42,2.26,8.8-5.52,13.16a3.13,3.13,0,0,1-4.31-1.31,3.33,3.33,0,0,1,1.27-4.44c3.25-1.81,3.66-3.09,3.06-4.15a23,23,0,0,0-3.12-3.77,34.31,34.31,0,0,1-3.6-4.28c-2.89-4.4-3.41-8.91,3.72-13.62Zm35.79,0a3.12,3.12,0,0,1,4.39,1,3.37,3.37,0,0,1-1,4.54c-2.7,1.78-2.71,3.16-1.89,4.4a28,28,0,0,0,2.9,3.4,27.15,27.15,0,0,1,4.07,5.09c2.47,4.42,2.26,8.8-5.52,13.16a3.13,3.13,0,0,1-4.31-1.31,3.33,3.33,0,0,1,1.27-4.44c3.25-1.81,3.65-3.08,3-4.15a23,23,0,0,0-3.12-3.77,33.38,33.38,0,0,1-3.59-4.28c-2.9-4.41-3.43-8.91,3.71-13.62Zm-17.89,0a3.12,3.12,0,0,1,4.39,1,3.36,3.36,0,0,1-1,4.54c-2.69,1.78-2.71,3.16-1.88,4.4a28,28,0,0,0,2.9,3.4,26.7,26.7,0,0,1,4.06,5.09c2.48,4.42,2.27,8.8-5.52,13.16a3.12,3.12,0,0,1-4.3-1.31,3.33,3.33,0,0,1,1.27-4.44c3.25-1.81,3.65-3.09,3-4.15a23,23,0,0,0-3.12-3.77,33.47,33.47,0,0,1-3.6-4.28c-2.9-4.4-3.41-8.91,3.72-13.62Zm-43.42,94.29h30.48A31.56,31.56,0,0,1,1121.29,683V657.66h62.94V658a3,3,0,0,1,.86-.11h7.9a10,10,0,0,1,9.9,9.92h0v0h0v6.83h0v0h0v0a9.89,9.89,0,0,1-2.68,6.74,2.39,2.39,0,0,1-.22.23,10,10,0,0,1-7,2.92h-7.88a3.68,3.68,0,0,1-.89-.12,31.56,31.56,0,0,1-17.44,26.71H1199a1.33,1.33,0,0,1,1.2,1.43v6a1.32,1.32,0,0,1-1.2,1.42h-90.64a1.33,1.33,0,0,1-1.2-1.42v-6a1.33,1.33,0,0,1,1.19-1.45Z"/></svg>